#tb 0: 1/1
#media_type 0: video
#codec_id 0: fits
#dimensions 0: 72x36
#sar 0: 0/1
0,          0,          0,        1,    14320, 0xa9ee75a4
0,          1,          1,        1,    14320, 0xb9daf9af
0,          2,          2,        1,    14320, 0xf6431b56
0,          3,          3,        1,    14320, 0x921adec5
0,          4,          4,        1,    14320, 0xa34e7331
